<svg xmlns="http://www.w3.org/2000/svg" viewBox="0 0 32 32" width="32" height="32">
  <defs>
    <linearGradient id="grad1" x1="0%" y1="0%" x2="100%" y2="100%">
      <stop offset="0%" style="stop-color:#6366f1;stop-opacity:1" />
      <stop offset="50%" style="stop-color:#8b5cf6;stop-opacity:1" />
      <stop offset="100%" style="stop-color:#ec4899;stop-opacity:1" />
    </linearGradient>
  </defs>
  
  <!-- 背景圆形 -->
  <circle cx="16" cy="16" r="14" fill="url(#grad1)" stroke="#ffffff" stroke-width="2"/>
  
  <!-- GitHub风格的图标 -->
  <path d="M16 6C10.477 6 6 10.477 6 16c0 4.418 2.865 8.166 6.839 9.489.5.092.682-.217.682-.482 0-.237-.008-.866-.013-1.7-2.782.605-3.369-1.343-3.369-1.343-.454-1.158-1.11-1.466-1.11-1.466-.908-.62.069-.608.069-.608 1.003.07 1.531 1.032 1.531 1.032.892 1.53 2.341 1.088 2.91.832.092-.647.35-1.088.636-1.338-2.22-.253-4.555-1.11-4.555-4.943 0-1.091.39-1.984 1.029-2.683-.103-.253-.446-1.27.098-2.647 0 0 .84-.269 2.75 1.026A9.564 9.564 0 0116 11.844c.85.004 1.705.115 2.504.337 1.909-1.295 2.747-1.026 2.747-1.026.546 1.377.203 2.394.1 2.647.64.699 1.028 1.592 1.028 2.683 0 3.842-2.339 4.687-4.566 4.935.359.309.678.919.678 1.852 0 1.336-.012 2.415-.012 2.743 0 .267.18.579.688.481C23.137 24.163 26 20.418 26 16c0-5.523-4.477-10-10-10z" fill="#ffffff"/>
  
  <!-- 趋势箭头 -->
  <path d="M24 8l-3 3 1.5 1.5L26 9l-3.5-3.5L21 7l3-3z" fill="#ffd700" stroke="#ffffff" stroke-width="0.5"/>
</svg>